<svg xmlns="http://www.w3.org/2000/svg" viewBox="0 0 818 721" width="818" height="721" font-family="ui-monospace,monospace">
<rect width="818" height="721" fill="#ffffff"/>
<rect x="10.0" y="10.0" width="798.0" height="683.2" fill="#f4f2ee" stroke="#333"/>
<path d="M607.7,379.7 L607.7,508.3 L543.5,508.3 L543.5,379.7 Z" fill="#7c5cbf" fill-opacity="0.6" stroke="#7c5cbf" stroke-width="1.3"/>
<rect x="550.4" y="469.2" width="50.4" height="32.2" fill="#c9a227" fill-opacity="0.7"/>
<rect x="550.4" y="386.6" width="50.4" height="32.2" fill="#c9a227" fill-opacity="0.7"/>
<text x="575.6" y="446.5" text-anchor="middle" font-size="7.5" font-weight="bold" fill="#3b2a66">C115</text>
<rect x="751.3" y="179.4" width="29.4" height="19.6" fill="#c9a227" fill-opacity="0.7"/>
<rect x="633.7" y="179.4" width="29.4" height="19.6" fill="#c9a227" fill-opacity="0.7"/>
<rect x="751.3" y="119.2" width="29.4" height="19.6" fill="#c9a227" fill-opacity="0.7"/>
<rect x="633.7" y="119.2" width="29.4" height="19.6" fill="#c9a227" fill-opacity="0.7"/>
<text x="707.2" y="161.6" text-anchor="middle" font-size="6.5" font-weight="normal" fill="#222">SW2</text>
<path d="M581.1,176.7 L581.1,260.5 L469.3,260.5 L469.3,176.7 Z" fill="#6641d6" fill-opacity="0.35" stroke="#6641d6" stroke-width="0.8"/>
<rect x="474.8" y="187.1" width="25.2" height="21.0" fill="#c9a227" fill-opacity="0.7"/>
<rect x="474.8" y="229.1" width="25.2" height="21.0" fill="#c9a227" fill-opacity="0.7"/>
<rect x="550.4" y="229.1" width="25.2" height="21.0" fill="#c9a227" fill-opacity="0.7"/>
<rect x="550.4" y="187.1" width="25.2" height="21.0" fill="#c9a227" fill-opacity="0.7"/>
<text x="525.2" y="221.1" text-anchor="middle" font-size="6.5" font-weight="normal" fill="#222">D1</text>
<path d="M666.3,-22.2 L648.3,-4.2 L612.5,-40.0 L630.5,-58.0 Z" fill="#6641d6" fill-opacity="0.35" stroke="#6641d6" stroke-width="0.8"/>
<rect x="619.8" y="-50.7" width="20.1" height="20.1" fill="#c9a227" fill-opacity="0.7"/>
<rect x="638.8" y="-31.7" width="20.1" height="20.1" fill="#c9a227" fill-opacity="0.7"/>
<text x="639.4" y="-28.6" text-anchor="middle" font-size="6.5" font-weight="normal" fill="#222">C41</text>
<path d="M294.4,22.8 L257.7,59.4 L239.3,41.0 L275.9,4.4 Z" fill="#6641d6" fill-opacity="0.35" stroke="#6641d6" stroke-width="0.8"/>
<rect x="246.6" y="31.9" width="20.2" height="20.2" fill="#c9a227" fill-opacity="0.7"/>
<rect x="266.8" y="11.7" width="20.2" height="20.2" fill="#c9a227" fill-opacity="0.7"/>
<text x="266.8" y="34.4" text-anchor="middle" font-size="6.5" font-weight="normal" fill="#222">R50</text>
<path d="M796.1,496.6 L796.1,686.8 L612.7,686.8 L612.7,496.6 Z" fill="#9aa0a8" fill-opacity="0.35" stroke="#9aa0a8" stroke-width="0.8"/>
<rect x="626.7" y="611.3" width="43.4" height="16.8" fill="#c9a227" fill-opacity="0.7"/>
<rect x="626.7" y="583.3" width="43.4" height="16.8" fill="#c9a227" fill-opacity="0.7"/>
<rect x="626.7" y="555.3" width="43.4" height="16.8" fill="#c9a227" fill-opacity="0.7"/>
<rect x="731.7" y="639.3" width="50.4" height="33.6" fill="#c9a227" fill-opacity="0.7"/>
<rect x="731.7" y="510.5" width="50.4" height="33.6" fill="#c9a227" fill-opacity="0.7"/>
<text x="704.4" y="594.2" text-anchor="middle" font-size="6.5" font-weight="normal" fill="#222">J4</text>
<path d="M343.9,476.9 L343.9,821.0 L102.0,821.0 L102.0,476.9 Z" fill="#9aa0a8" fill-opacity="0.35" stroke="#9aa0a8" stroke-width="0.8"/>
<rect x="128.4" y="502.0" width="47.6" height="47.6" fill="#c9a227" fill-opacity="0.7"/>
<rect x="199.6" y="502.0" width="47.6" height="47.6" fill="#c9a227" fill-opacity="0.7"/>
<rect x="270.7" y="502.0" width="47.6" height="47.6" fill="#c9a227" fill-opacity="0.7"/>
<text x="152.2" y="528.3" text-anchor="middle" font-size="6.5" font-weight="normal" fill="#222">J8</text>
<path d="M440.9,175.3 L404.2,211.9 L385.8,193.5 L422.5,156.8 Z" fill="#6641d6" fill-opacity="0.35" stroke="#6641d6" stroke-width="0.8"/>
<rect x="393.1" y="184.3" width="20.2" height="20.2" fill="#c9a227" fill-opacity="0.7"/>
<rect x="413.3" y="164.2" width="20.2" height="20.2" fill="#c9a227" fill-opacity="0.7"/>
<text x="413.4" y="186.9" text-anchor="middle" font-size="6.5" font-weight="normal" fill="#222">R34</text>
<path d="M505.3,591.2 L516.0,592.3 L526.4,594.6 L536.6,597.9 L546.4,602.2 L555.6,607.5 L564.3,613.8 L572.2,621.0 L579.4,628.9 L585.7,637.6 L591.0,646.8 L595.3,656.6 L598.6,666.8 L600.9,677.2 L602.0,687.9 L602.1,693.2 L602.0,698.5 L600.9,709.2 L598.6,719.6 L595.3,729.8 L591.0,739.6 L585.7,748.8 L579.4,757.5 L572.2,765.4 L564.3,772.6 L555.6,778.9 L546.4,784.2 L536.6,788.5 L526.4,791.8 L516.0,794.1 L505.3,795.2 L494.7,795.2 L484.0,794.1 L473.6,791.8 L463.4,788.5 L453.6,784.2 L444.4,778.9 L435.7,772.6 L427.8,765.4 L420.6,757.5 L414.3,748.8 L409.0,739.6 L404.7,729.8 L401.4,719.6 L399.1,709.2 L398.0,698.5 L398.0,687.9 L399.1,677.2 L401.4,666.8 L404.7,656.6 L409.0,646.8 L414.3,637.6 L420.6,628.9 L427.8,621.0 L435.7,613.8 L444.4,607.5 L453.6,602.2 L463.4,597.9 L473.6,594.6 L484.0,592.3 L494.7,591.2 Z" fill="#9aa0a8" fill-opacity="0.35" stroke="#9aa0a8" stroke-width="0.8"/>
<rect x="445.4" y="638.6" width="109.2" height="109.2" fill="#c9a227" fill-opacity="0.7"/>
<text x="500.0" y="695.7" text-anchor="middle" font-size="6.5" font-weight="normal" fill="#222">H2</text>
<path d="M288.4,-73.4 L270.4,-55.4 L234.6,-91.2 L252.6,-109.3 Z" fill="#6641d6" fill-opacity="0.35" stroke="#6641d6" stroke-width="0.8"/>
<rect x="261.8" y="-82.0" width="19.8" height="19.8" fill="#c9a227" fill-opacity="0.7"/>
<rect x="241.4" y="-102.4" width="19.8" height="19.8" fill="#c9a227" fill-opacity="0.7"/>
<text x="261.5" y="-79.8" text-anchor="middle" font-size="6.5" font-weight="normal" fill="#222">C17</text>
<path d="M308.5,192.4 L290.5,210.4 L254.7,174.6 L272.7,156.6 Z" fill="#6641d6" fill-opacity="0.35" stroke="#6641d6" stroke-width="0.8"/>
<rect x="262.1" y="163.9" width="20.1" height="20.1" fill="#c9a227" fill-opacity="0.7"/>
<rect x="281.1" y="182.9" width="20.1" height="20.1" fill="#c9a227" fill-opacity="0.7"/>
<text x="281.6" y="186.0" text-anchor="middle" font-size="6.5" font-weight="normal" fill="#222">C4</text>
<path d="M427.2,141.0 L409.2,159.0 L373.4,123.2 L391.4,105.1 Z" fill="#6641d6" fill-opacity="0.35" stroke="#6641d6" stroke-width="0.8"/>
<rect x="380.8" y="112.5" width="20.1" height="20.1" fill="#c9a227" fill-opacity="0.7"/>
<rect x="399.8" y="131.5" width="20.1" height="20.1" fill="#c9a227" fill-opacity="0.7"/>
<text x="400.3" y="134.6" text-anchor="middle" font-size="6.5" font-weight="normal" fill="#222">C35</text>
<path d="M535.6,264.0 L535.6,576.2 L345.4,576.2 L345.4,264.0 Z" fill="#9aa0a8" fill-opacity="0.35" stroke="#9aa0a8" stroke-width="0.8"/>
<rect x="419.9" y="502.4" width="61.3" height="48.7" fill="#c9a227" fill-opacity="0.7"/>
<rect x="419.9" y="431.3" width="61.3" height="48.7" fill="#c9a227" fill-opacity="0.7"/>
<rect x="419.9" y="360.1" width="61.3" height="48.7" fill="#c9a227" fill-opacity="0.7"/>
<rect x="419.9" y="289.0" width="61.3" height="48.7" fill="#c9a227" fill-opacity="0.7"/>
<text x="441.1" y="529.2" text-anchor="middle" font-size="6.5" font-weight="normal" fill="#222">J11</text>
<path d="M101.6,409.8 L101.6,712.0 L39.1,712.0 L39.1,880.0 L-236.1,880.0 L-236.1,712.0 L-298.6,712.0 L-298.6,409.8 Z" fill="#9aa0a8" fill-opacity="0.35" stroke="#9aa0a8" stroke-width="0.8"/>
<rect x="35.9" y="593.1" width="39.2" height="39.2" fill="#c9a227" fill-opacity="0.7"/>
<rect x="-272.1" y="593.1" width="39.2" height="39.2" fill="#c9a227" fill-opacity="0.7"/>
<rect x="-77.5" y="423.7" width="98.0" height="98.0" fill="#c9a227" fill-opacity="0.7"/>
<rect x="-217.5" y="423.7" width="98.0" height="98.0" fill="#c9a227" fill-opacity="0.7"/>
<text x="-28.5" y="475.2" text-anchor="middle" font-size="6.5" font-weight="normal" fill="#222">J10</text>
<path d="M97.1,275.7 L97.1,407.0 L16.2,407.0 L16.2,275.7 Z" fill="#d641c4" fill-opacity="0.35" stroke="#d641c4" stroke-width="0.8"/>
<rect x="28.6" y="288.2" width="56.0" height="106.4" fill="#c9a227" fill-opacity="0.7"/>
<text x="56.6" y="343.9" text-anchor="middle" font-size="6.5" font-weight="normal" fill="#222">TP8</text>
<path d="M313.6,42.8 L277.7,78.6 L259.7,60.6 L295.6,24.8 Z" fill="#6641d6" fill-opacity="0.35" stroke="#6641d6" stroke-width="0.8"/>
<rect x="286.1" y="32.2" width="20.1" height="20.1" fill="#c9a227" fill-opacity="0.7"/>
<rect x="267.1" y="51.2" width="20.1" height="20.1" fill="#c9a227" fill-opacity="0.7"/>
<text x="286.6" y="54.2" text-anchor="middle" font-size="6.5" font-weight="normal" fill="#222">C30</text>
<rect x="765.3" y="-57.9" width="19.6" height="29.4" fill="#c9a227" fill-opacity="0.7"/>
<rect x="765.3" y="59.7" width="19.6" height="29.4" fill="#c9a227" fill-opacity="0.7"/>
<rect x="705.1" y="-57.9" width="19.6" height="29.4" fill="#c9a227" fill-opacity="0.7"/>
<rect x="705.1" y="59.7" width="19.6" height="29.4" fill="#c9a227" fill-opacity="0.7"/>
<text x="745.0" y="18.1" text-anchor="middle" font-size="6.5" font-weight="normal" fill="#222">SW1</text>
<path d="M199.9,-89.5 L163.3,-52.8 L144.9,-71.2 L181.5,-107.9 Z" fill="#6641d6" fill-opacity="0.35" stroke="#6641d6" stroke-width="0.8"/>
<rect x="152.2" y="-80.4" width="20.2" height="20.2" fill="#c9a227" fill-opacity="0.7"/>
<rect x="172.4" y="-100.6" width="20.2" height="20.2" fill="#c9a227" fill-opacity="0.7"/>
<text x="172.4" y="-77.8" text-anchor="middle" font-size="6.5" font-weight="normal" fill="#222">R32</text>
<path d="M796.1,262.1 L796.1,452.3 L612.7,452.3 L612.7,262.1 Z" fill="#9aa0a8" fill-opacity="0.35" stroke="#9aa0a8" stroke-width="0.8"/>
<rect x="626.7" y="376.8" width="43.4" height="16.8" fill="#c9a227" fill-opacity="0.7"/>
<rect x="626.7" y="348.8" width="43.4" height="16.8" fill="#c9a227" fill-opacity="0.7"/>
<rect x="626.7" y="320.8" width="43.4" height="16.8" fill="#c9a227" fill-opacity="0.7"/>
<rect x="731.7" y="404.8" width="50.4" height="33.6" fill="#c9a227" fill-opacity="0.7"/>
<rect x="731.7" y="276.0" width="50.4" height="33.6" fill="#c9a227" fill-opacity="0.7"/>
<text x="704.4" y="359.7" text-anchor="middle" font-size="6.5" font-weight="normal" fill="#222">J6</text>
<path d="M269.6,-54.6 L251.6,-36.6 L215.8,-72.4 L233.8,-90.4 Z" fill="#6641d6" fill-opacity="0.35" stroke="#6641d6" stroke-width="0.8"/>
<rect x="243.0" y="-63.2" width="19.8" height="19.8" fill="#c9a227" fill-opacity="0.7"/>
<rect x="222.6" y="-83.6" width="19.8" height="19.8" fill="#c9a227" fill-opacity="0.7"/>
<text x="242.7" y="-61.0" text-anchor="middle" font-size="6.5" font-weight="normal" fill="#222">C18</text>
<path d="M579.9,81.6 L561.9,99.6 L526.1,63.8 L544.1,45.8 Z" fill="#6641d6" fill-opacity="0.35" stroke="#6641d6" stroke-width="0.8"/>
<rect x="533.4" y="53.1" width="20.1" height="20.1" fill="#c9a227" fill-opacity="0.7"/>
<rect x="552.4" y="72.1" width="20.1" height="20.1" fill="#c9a227" fill-opacity="0.7"/>
<text x="553.0" y="75.2" text-anchor="middle" font-size="6.5" font-weight="normal" fill="#222">C37</text>
<path d="M735.8,190.9 L735.8,255.0 L612.8,255.0 L612.8,190.9 Z" fill="#419fd6" fill-opacity="0.35" stroke="#419fd6" stroke-width="0.8"/>
<rect x="698.1" y="207.5" width="30.8" height="30.8" fill="#c9a227" fill-opacity="0.7"/>
<rect x="619.7" y="207.5" width="30.8" height="30.8" fill="#c9a227" fill-opacity="0.7"/>
<text x="674.3" y="225.4" text-anchor="middle" font-size="6.5" font-weight="normal" fill="#222">D31</text>
<path d="M274.6,3.0 L237.9,39.6 L219.5,21.2 L256.2,-15.4 Z" fill="#6641d6" fill-opacity="0.35" stroke="#6641d6" stroke-width="0.8"/>
<rect x="226.8" y="12.1" width="20.2" height="20.2" fill="#c9a227" fill-opacity="0.7"/>
<rect x="247.0" y="-8.1" width="20.2" height="20.2" fill="#c9a227" fill-opacity="0.7"/>
<text x="247.0" y="14.6" text-anchor="middle" font-size="6.5" font-weight="normal" fill="#222">R51</text>
<path d="M255.4,-26.9 L214.0,14.5 L164.7,-34.8 L206.1,-76.2 Z" fill="#6641d6" fill-opacity="0.35" stroke="#6641d6" stroke-width="0.8"/>
<rect x="200.1" y="-40.7" width="47.5" height="47.5" fill="#c9a227" fill-opacity="0.7"/>
<rect x="172.4" y="-68.5" width="47.5" height="47.5" fill="#c9a227" fill-opacity="0.7"/>
<text x="210.0" y="-28.3" text-anchor="middle" font-size="6.5" font-weight="normal" fill="#222">L2</text>
<path d="M134.2,-88.2 L134.2,-33.6 L39.3,-33.6 L39.3,-88.2 Z" fill="#d641c4" fill-opacity="0.35" stroke="#d641c4" stroke-width="0.8"/>
<rect x="99.3" y="-81.2" width="28.0" height="40.6" fill="#c9a227" fill-opacity="0.7"/>
<rect x="46.1" y="-81.2" width="28.0" height="40.6" fill="#c9a227" fill-opacity="0.7"/>
<text x="86.7" y="-58.4" text-anchor="middle" font-size="6.5" font-weight="normal" fill="#222">C47</text>
<path d="M114.3,-25.6 L127.1,-24.5 L139.7,-22.2 L152.1,-18.9 L164.2,-14.5 L175.8,-9.1 L186.9,-2.7 L197.4,4.7 L207.2,12.9 L216.3,22.0 L224.5,31.8 L231.9,42.3 L238.3,53.4 L243.7,65.0 L248.1,77.0 L251.4,89.4 L253.6,102.0 L254.7,114.8 L254.8,121.2 L254.7,127.6 L253.6,140.4 L251.4,153.0 L248.1,165.4 L243.7,177.5 L238.3,189.1 L231.9,200.2 L224.5,210.7 L216.3,220.5 L207.2,229.6 L197.4,237.8 L186.9,245.1 L175.8,251.6 L164.2,257.0 L152.1,261.4 L139.7,264.7 L127.1,266.9 L114.3,268.0 L101.5,268.0 L88.8,266.9 L76.1,264.7 L63.8,261.4 L51.7,257.0 L40.1,251.6 L29.0,245.1 L18.5,237.8 L8.7,229.6 L-0.4,220.5 L-8.6,210.7 L-16.0,200.2 L-22.4,189.1 L-27.8,177.5 L-32.2,165.4 L-35.5,153.0 L-37.7,140.4 L-38.9,127.6 L-38.9,114.8 L-37.7,102.0 L-35.5,89.4 L-32.2,77.0 L-27.8,65.0 L-22.4,53.4 L-16.0,42.3 L-8.6,31.8 L-0.4,22.0 L8.7,12.9 L18.5,4.7 L29.0,-2.7 L40.1,-9.1 L51.7,-14.5 L63.8,-18.9 L76.1,-22.2 L88.8,-24.5 L101.5,-25.6 Z" fill="#d641c4" fill-opacity="0.35" stroke="#d641c4" stroke-width="0.8"/>
<rect x="18.8" y="131.1" width="79.2" height="79.2" fill="#c9a227" fill-opacity="0.7"/>
<rect x="129.4" y="43.7" width="56.0" height="56.0" fill="#c9a227" fill-opacity="0.7"/>
<text x="58.4" y="173.2" text-anchor="middle" font-size="6.5" font-weight="normal" fill="#222">C42</text>
<path d="M614.6,18.3 L596.6,36.3 L560.8,0.5 L578.8,-17.5 Z" fill="#6641d6" fill-opacity="0.35" stroke="#6641d6" stroke-width="0.8"/>
<rect x="568.1" y="-10.1" width="20.1" height="20.1" fill="#c9a227" fill-opacity="0.7"/>
<rect x="587.1" y="8.9" width="20.1" height="20.1" fill="#c9a227" fill-opacity="0.7"/>
<text x="587.7" y="11.9" text-anchor="middle" font-size="6.5" font-weight="normal" fill="#222">C20</text>
<path d="M211.5,290.6 L159.7,290.6 L159.7,264.5 L211.5,264.5 Z" fill="#cad641" fill-opacity="0.35" stroke="#cad641" stroke-width="0.8"/>
<rect x="192.3" y="268.6" width="15.1" height="17.9" fill="#c9a227" fill-opacity="0.7"/>
<rect x="163.7" y="268.6" width="15.1" height="17.9" fill="#c9a227" fill-opacity="0.7"/>
<text x="185.6" y="280.0" text-anchor="middle" font-size="6.5" font-weight="normal" fill="#222">R8</text>
<path d="M341.7,483.8 L100.6,483.8 L100.6,293.6 L341.7,293.6 Z" fill="#9aa0a8" fill-opacity="0.35" stroke="#9aa0a8" stroke-width="0.8"/>
<rect x="267.9" y="348.0" width="48.7" height="61.3" fill="#c9a227" fill-opacity="0.7"/>
<rect x="196.8" y="348.0" width="48.7" height="61.3" fill="#c9a227" fill-opacity="0.7"/>
<rect x="125.6" y="348.0" width="48.7" height="61.3" fill="#c9a227" fill-opacity="0.7"/>
<text x="292.2" y="390.6" text-anchor="middle" font-size="6.5" font-weight="normal" fill="#222">J5</text>
<path d="M379.7,158.8 L330.4,208.1 L255.3,133.0 L304.6,83.7 Z" fill="#6641d6" fill-opacity="0.35" stroke="#6641d6" stroke-width="0.8"/>
<rect x="318.5" y="176.6" width="17.8" height="17.8" fill="#c9a227" fill-opacity="0.7"/>
<rect x="328.4" y="166.7" width="17.8" height="17.8" fill="#c9a227" fill-opacity="0.7"/>
<rect x="338.3" y="156.8" width="17.8" height="17.8" fill="#c9a227" fill-opacity="0.7"/>
<rect x="348.2" y="146.9" width="17.8" height="17.8" fill="#c9a227" fill-opacity="0.7"/>
<rect x="298.7" y="97.4" width="17.8" height="17.8" fill="#c9a227" fill-opacity="0.7"/>
<rect x="288.8" y="107.3" width="17.8" height="17.8" fill="#c9a227" fill-opacity="0.7"/>
<rect x="278.9" y="117.2" width="17.8" height="17.8" fill="#c9a227" fill-opacity="0.7"/>
<rect x="269.0" y="127.1" width="17.8" height="17.8" fill="#c9a227" fill-opacity="0.7"/>
<rect x="297.7" y="126.1" width="39.6" height="39.6" fill="#c9a227" fill-opacity="0.7"/>
<text x="317.5" y="148.4" text-anchor="middle" font-size="6.5" font-weight="normal" fill="#222">U3</text>
<rect x="648.3" y="265.9" width="18.2" height="18.2" fill="#c9a227" fill-opacity="0.7"/>
<rect x="648.3" y="427.8" width="18.2" height="18.2" fill="#c9a227" fill-opacity="0.7"/>
<rect x="738.0" y="221.0" width="44.8" height="28.0" fill="#c9a227" fill-opacity="0.7"/>
<rect x="614.0" y="221.0" width="58.8" height="28.0" fill="#c9a227" fill-opacity="0.7"/>
<rect x="738.0" y="462.9" width="44.8" height="28.0" fill="#c9a227" fill-opacity="0.7"/>
<rect x="614.0" y="462.9" width="58.8" height="28.0" fill="#c9a227" fill-opacity="0.7"/>
<text x="730.3" y="358.4" text-anchor="middle" font-size="6.5" font-weight="normal" fill="#222">J3</text>
<text x="10" y="716.2000000000002" font-size="9" fill="#333">Bottom-right, front side: C115 between J11 and J6</text>
<defs><marker id="arr2" markerWidth="6" markerHeight="6" refX="5" refY="3" orient="auto"><path d="M0,0 L6,3 L0,6 Z" fill="#b03434"/></marker></defs></svg>